<svg width="106" height="56" viewBox="0 0 106 56" fill="none" xmlns="http://www.w3.org/2000/svg">
<path fill-rule="evenodd" clip-rule="evenodd" d="M92.2079 27.48C93.1186 25.2689 93.6191 22.8583 93.6191 20.3351C93.6191 9.6243 84.5992 0.941467 73.4726 0.941467C63.5484 0.941467 55.3003 7.84891 53.6333 16.9418C51.1743 15.4423 48.1518 14.5583 44.8841 14.5583C43.8974 14.5583 42.9331 14.6389 41.9999 14.7927C39.3941 6.78248 31.2851 0.941473 21.6854 0.941473C9.98103 0.941473 0.492798 9.62431 0.492798 20.3351C0.492798 27.1941 4.38372 33.2214 10.2559 36.6694C9.54012 38.1134 9.15146 39.6632 9.15146 41.2762C9.15146 49.0814 18.2526 55.4088 29.4795 55.4088C38.4778 55.4088 46.1106 51.344 48.7863 45.7115C51.7534 48.1117 56.1528 49.6319 61.063 49.6319C66.7126 49.6319 71.6859 47.6194 74.5796 44.5696C77.8265 46.6656 82.5096 47.9814 87.7163 47.9814C97.5196 47.9814 105.467 43.3167 105.467 37.5625C105.467 32.7191 99.8364 28.6476 92.2079 27.48Z" fill="#E8F2F6"/>
<path fill-rule="evenodd" clip-rule="evenodd" d="M39.9758 22.3678C40.0514 21.7971 40.0903 21.2171 40.0903 20.6296C40.0903 11.9645 31.6467 4.94 21.2311 4.94C10.8155 4.94 2.37195 11.9645 2.37195 20.6296C2.37195 27.5105 7.69612 33.3567 15.1041 35.4727C14.4328 36.8189 14.0633 38.2898 14.0633 39.8306C14.0633 46.2677 20.5137 51.486 28.4706 51.486C36.4275 51.486 42.8779 46.2677 42.8779 39.8306C42.8779 39.5525 42.8659 39.2767 42.8422 39.0035C44.9702 39.5351 47.3273 39.8306 49.8075 39.8306C59.2669 39.8306 66.9354 35.5323 66.9354 30.2301C66.9354 24.9279 59.2669 20.6296 49.8075 20.6296C46.149 20.6296 42.7585 21.2726 39.9758 22.3678Z" fill="#DEF0F8"/>
<path fill-rule="evenodd" clip-rule="evenodd" d="M71.2512 31.5243C78.198 31.5243 83.8295 26.9009 83.8295 21.1976C83.8295 15.4943 78.198 10.8708 71.2512 10.8708C64.6388 10.8708 59.218 15.0599 58.7115 20.3819C58.2885 20.3416 57.8593 20.321 57.4249 20.321C54.9604 20.321 52.6619 20.9855 50.7233 22.1333C48.5814 19.559 45.1144 17.8862 41.2017 17.8862C34.6969 17.8862 29.4236 22.5097 29.4236 28.213C29.4236 33.9163 34.6969 38.5397 41.2017 38.5397C43.0398 38.5397 44.7796 38.1705 46.3298 37.5122C48.4322 41.2311 52.6119 43.7655 57.4249 43.7655C64.351 43.7655 69.9657 38.5173 69.9657 32.0432C69.9657 31.851 69.9608 31.6598 69.951 31.4698C70.3784 31.5059 70.8122 31.5243 71.2512 31.5243Z" fill="#EDF9FF"/>
</svg>
