<svg width="134" height="101" viewBox="0 0 134 101" fill="none" xmlns="http://www.w3.org/2000/svg">
<g filter="url(#filter0_f)">
<ellipse cx="78.8177" cy="50.5599" rx="40.3785" ry="35.8489" fill="#F7D376"/>
<path d="M117.696 50.5599C117.696 69.3675 100.462 84.9088 78.8177 84.9088C57.1729 84.9088 39.9392 69.3675 39.9392 50.5599C39.9392 31.7523 57.1729 16.2109 78.8177 16.2109C100.462 16.2109 117.696 31.7523 117.696 50.5599Z" stroke="#D88912" stroke-width="3"/>
</g>
<path fill-rule="evenodd" clip-rule="evenodd" d="M92.1474 70.2089C93.0581 67.9979 93.5587 65.5872 93.5587 63.0641C93.5587 52.3532 84.5387 43.6704 73.4121 43.6704C63.488 43.6704 55.2398 50.5778 53.5728 59.6708C51.1138 58.1712 48.0913 57.2873 44.8236 57.2873C43.837 57.2873 42.8726 57.3678 41.9394 57.5217C39.3336 49.5114 31.2246 43.6704 21.6249 43.6704C9.92055 43.6704 0.432312 52.3533 0.432312 63.0641C0.432312 69.923 4.32324 75.9503 10.1954 79.3984C9.47963 80.8423 9.09098 82.3922 9.09098 84.0051C9.09098 91.8103 18.1921 98.1377 29.419 98.1377C38.4174 98.1377 46.0502 94.0729 48.7258 88.4404C51.6929 90.8406 56.0923 92.3609 61.0025 92.3609C66.6522 92.3609 71.6254 90.3483 74.5191 87.2985C77.766 89.3945 82.4491 90.7104 87.6558 90.7104C97.4591 90.7104 105.406 86.0456 105.406 80.2914C105.406 75.448 99.7759 71.3765 92.1474 70.2089Z" fill="#E8F2F6"/>
<path fill-rule="evenodd" clip-rule="evenodd" d="M39.9154 65.0968C39.991 64.526 40.0298 63.9461 40.0298 63.3586C40.0298 54.6934 31.5862 47.6689 21.1706 47.6689C10.755 47.6689 2.31146 54.6934 2.31146 63.3586C2.31146 70.2394 7.63563 76.0857 15.0436 78.2017C14.3723 79.5479 14.0028 81.0188 14.0028 82.5595C14.0028 88.9966 20.4532 94.2149 28.4101 94.2149C36.3671 94.2149 42.8174 88.9966 42.8174 82.5595C42.8174 82.2814 42.8054 82.0056 42.7817 81.7324C44.9097 82.264 47.2668 82.5595 49.747 82.5595C59.2065 82.5595 66.8749 78.2612 66.8749 72.959C66.8749 67.6569 59.2065 63.3586 49.747 63.3586C46.0885 63.3586 42.698 64.0015 39.9154 65.0968Z" fill="#DEF0F8"/>
<path fill-rule="evenodd" clip-rule="evenodd" d="M71.1907 74.2533C78.1375 74.2533 83.7691 69.6299 83.7691 63.9265C83.7691 58.2232 78.1375 53.5998 71.1907 53.5998C64.5783 53.5998 59.1576 57.7889 58.651 63.1109C58.228 63.0706 57.7988 63.0499 57.3645 63.0499C54.8999 63.0499 52.6014 63.7145 50.6628 64.8623C48.5209 62.2879 45.0539 60.6152 41.1412 60.6152C34.6364 60.6152 29.3632 65.2386 29.3632 70.9419C29.3632 76.6452 34.6364 81.2687 41.1412 81.2687C42.9793 81.2687 44.7191 80.8995 46.2693 80.2411C48.3717 83.9601 52.5514 86.4945 57.3645 86.4945C64.2905 86.4945 69.9052 81.2462 69.9052 74.7722C69.9052 74.58 69.9003 74.3888 69.8905 74.1988C70.3179 74.2348 70.7517 74.2533 71.1907 74.2533Z" fill="#EDF9FF"/>
<defs>
<filter id="filter0_f" x="24.4392" y="0.710938" width="108.757" height="99.6978" filterUnits="userSpaceOnUse" color-interpolation-filters="sRGB">
<feFlood flood-opacity="0" result="BackgroundImageFix"/>
<feBlend mode="normal" in="SourceGraphic" in2="BackgroundImageFix" result="shape"/>
<feGaussianBlur stdDeviation="7" result="effect1_foregroundBlur"/>
</filter>
</defs>
</svg>
