<svg width="90" height="73" viewBox="0 0 90 73" fill="none" xmlns="http://www.w3.org/2000/svg">
<g filter="url(#filter0_f)">
<ellipse cx="37" cy="34.4586" rx="28" ry="25" fill="#FFF6D8"/>
</g>
<ellipse cx="50.7685" cy="31.7144" rx="4.86541" ry="5.09112" fill="#F6EED5"/>
<ellipse cx="43.4211" cy="51.0724" rx="2.4327" ry="2.38488" fill="#F6EED5"/>
<ellipse cx="49.2128" cy="21.5322" rx="3.11145" ry="3.13204" fill="#F6EED5"/>
<ellipse cx="40.9884" cy="36.8055" rx="3.98842" ry="3.90936" fill="#F6EED5"/>
<ellipse cx="40.9885" cy="26.6233" rx="4.86541" ry="5.09112" fill="#F6EED5"/>
<ellipse cx="46.1013" cy="43.6087" rx="3.30968" ry="2.89377" fill="#F6EED5"/>
<path fill-rule="evenodd" clip-rule="evenodd" d="M79.7842 52.9653C80.4578 51.4002 80.8281 49.6939 80.8281 47.908C80.8281 40.3267 74.1563 34.1808 65.9263 34.1808C58.5858 34.1808 52.4849 39.07 51.2519 45.5062C49.433 44.4447 47.1973 43.8191 44.7804 43.8191C44.0506 43.8191 43.3373 43.8761 42.647 43.985C40.7196 38.3152 34.7216 34.1808 27.621 34.1808C18.9637 34.1808 11.9456 40.3267 11.9456 47.908C11.9456 52.7629 14.8235 57.0291 19.167 59.4697C18.6376 60.4918 18.3501 61.5888 18.3501 62.7304C18.3501 68.2551 25.0819 72.7338 33.386 72.7338C40.0418 72.7338 45.6876 69.8567 47.6666 65.8698C49.8613 67.5688 53.1154 68.6448 56.7474 68.6448C60.9262 68.6448 64.6048 67.2203 66.7451 65.0616C69.1468 66.5452 72.6107 67.4765 76.4619 67.4765C83.7131 67.4765 89.5914 64.1748 89.5914 60.1018C89.5914 56.6736 85.4267 53.7917 79.7842 52.9653Z" fill="#E8F2F6"/>
<path fill-rule="evenodd" clip-rule="evenodd" d="M41.1499 49.3467C41.2059 48.9428 41.2346 48.5323 41.2346 48.1164C41.2346 41.9831 34.9892 37.011 27.2851 37.011C19.581 37.011 13.3356 41.9831 13.3356 48.1164C13.3356 52.9868 17.2737 57.1249 22.7531 58.6226C22.2566 59.5755 21.9833 60.6166 21.9833 61.7072C21.9833 66.2635 26.7544 69.9571 32.6399 69.9571C38.5254 69.9571 43.2965 66.2635 43.2965 61.7072C43.2965 61.5104 43.2876 61.3151 43.2701 61.1218C44.8441 61.498 46.5876 61.7072 48.4221 61.7072C55.419 61.7072 61.091 58.6648 61.091 54.9118C61.091 51.1588 55.419 48.1164 48.4221 48.1164C45.7161 48.1164 43.2082 48.5715 41.1499 49.3467Z" fill="#DEF0F8"/>
<path fill-rule="evenodd" clip-rule="evenodd" d="M64.2832 55.8279C69.4215 55.8279 73.587 52.5554 73.587 48.5185C73.587 44.4816 69.4215 41.209 64.2832 41.209C59.3922 41.209 55.3827 44.1741 55.008 47.9411C54.6951 47.9126 54.3777 47.898 54.0564 47.898C52.2334 47.898 50.5333 48.3684 49.0994 49.1808C47.5151 47.3586 44.9506 46.1746 42.0566 46.1746C37.2452 46.1746 33.3447 49.4472 33.3447 53.4841C33.3447 57.521 37.2452 60.7936 42.0566 60.7936C43.4162 60.7936 44.703 60.5323 45.8497 60.0662C47.4047 62.6986 50.4964 64.4924 54.0564 64.4924C59.1794 64.4924 63.3324 60.7776 63.3324 56.1952C63.3324 56.0591 63.3287 55.9238 63.3215 55.7894C63.6376 55.8149 63.9585 55.8279 64.2832 55.8279Z" fill="#EDF9FF"/>
<defs>
<filter id="filter0_f" x="0" y="0.458649" width="74" height="68" filterUnits="userSpaceOnUse" color-interpolation-filters="sRGB">
<feFlood flood-opacity="0" result="BackgroundImageFix"/>
<feBlend mode="normal" in="SourceGraphic" in2="BackgroundImageFix" result="shape"/>
<feGaussianBlur stdDeviation="4.5" result="effect1_foregroundBlur"/>
</filter>
</defs>
</svg>
