<svg width="822" height="238" viewBox="0 0 822 238" fill="none" xmlns="http://www.w3.org/2000/svg">
<path d="M69.8042 176.574L0.54126 237.022H821.622L769.99 176.574L717.098 153.906L660.428 92.1992L598.721 67.0127L559.682 43.0855L496.716 107.311L456.417 131.238L401.007 67.0127L270.037 0.268387L210.849 67.0127L123.955 118.645L69.8042 176.574Z" fill="#C4C4C4"/>
<path d="M192.931 132.904L158.02 140.438L140.565 157.158L134.685 177.369L140.565 191.884L138.36 205.665L153.794 236.901H238.865L221.594 220.18L216.633 207.686L200.097 196.294L201.383 179.206L194.952 160.465L198.259 145.95L192.931 132.904Z" fill="#3B5A61"/>
<path d="M221.41 136.028L192.379 133.088L198.075 146.133L194.768 160.098L201.383 179.023L199.913 196.294L215.898 207.319L221.41 219.997L238.498 236.717H366.013L352.967 230.286L328.53 211.177L316.587 204.746L302.255 179.023L269.55 166.345V154.585L250.992 123.717L221.41 136.028Z" fill="#4E727A"/>
<path d="M277.083 145.766L250.992 124.085L268.999 155.137V166.161L302.072 178.839L316.403 205.665L329.265 212.096L351.497 229.918L364.543 236.717H652.278L593.298 219.262L562.797 204.195L495.916 197.213L442.448 204.195L366.564 189.496L330.735 167.631L277.083 145.766Z" fill="#57818A"/>
<path d="M1.51678 237.652L106.39 144.296L158.572 140.438L141.211 157.158L135.251 178.422L141.211 191.832L138.603 205.243L153.978 236.717L1.51678 237.652Z" fill="#344C51"/>
<path d="M262.988 44.6434L242.011 32.2195L269.917 0.218859L332.206 32.2195L325.995 38.4315L311.796 42.277L302.33 49.0805L291.681 44.6434L274.82 46.7141L262.988 44.6434Z" fill="#93A1AB"/>
<path d="M293.697 72.8586L291.538 44.2095L273.555 46.9621L237.05 72.3115L234.71 89.7633L216.367 112.423L250.755 123.55L276.153 144.906L291.795 109.812L287.222 89.7633L293.697 72.8586Z" fill="#9194A6"/>
<path d="M275.108 80.7708L271.896 69.0712L264.899 77.5592L262.146 86.9647L256.87 95.4527V104.17L251.25 114.952L250.561 123.555L275.796 144.201L281.646 116.673L279.237 107.267L271.896 94.3057L275.108 80.7708Z" fill="#9499B6"/>
<path d="M334.884 59.1858L319.469 39.8845L311.885 42.2583L302.035 49.0298L291.276 44.1828L293.505 72.5981L286.997 89.6588L291.57 109.797L276.004 144.622L277.587 146.293L332.901 168.532L366.351 189.393L396.563 194.428L401.599 168.532L392.607 145.513L377.86 126.09L374.623 115.3L358.465 106.482V97.3715L347.88 77.1398L347.21 67.7608L334.884 59.1858Z" fill="#9CADB2"/>
<path d="M326.031 38.4582L319.291 39.9702L334.657 59.2491L347.092 68.3063L347.707 77.8283L358.324 97.0711V106.361L374.443 115.282L377.566 125.825L392.381 145.368L401.53 168.423L396.367 194.612L442.372 204.123L495.235 197.045L527.306 200.584L496.34 166.964L468.029 148.827L456.307 131.133L400.79 66.5481L332.446 31.8227L326.031 38.4582Z" fill="#A3B6BC"/>
<path d="M200.161 86.6183L123.904 118.892L211.586 66.6258L200.161 86.6183Z" fill="#D1D9DB"/>
<path d="M262.911 43.9853L242.364 31.699L211.585 66.4909L200.046 86.7785L124.729 118.351L58.1605 187.075L105.836 145.612L161.881 128.114L193.326 103.642L216.91 111.884L235.296 89.568L237.198 72.5772L275.564 46.5504L262.911 43.9853Z" fill="#85899E"/>
<path d="M307.491 21.2316L271.491 3.93076L275.86 15.9889L286.345 18.086L293.335 22.8044L307.491 21.2316Z" fill="#AEBECA"/>
<path d="M274.086 16.1299L270.205 4.77565L245.484 31.6522L263.019 42.2879V31.6522L270.205 28.2028L274.086 16.1299Z" fill="#82919B"/>
<path d="M258.408 45.0411L242.466 34.6219L213.593 67.5113L202.923 87.0944L227.779 75.0433L232.298 59.8539L258.408 45.0411Z" fill="#6D7186"/>
<path d="M177.063 98.7689L125.219 119.356L112.54 133.29L137.395 128.269L153.715 115.967L163.004 113.958L177.063 98.7689Z" fill="#979CB3"/>
<path d="M310.81 40.3861L301.894 47.1986L304.398 32.1711L318.724 27.5627L329.244 32.7722L324.836 37.1803L310.81 40.3861Z" fill="#BED1DF"/>
<path d="M399.392 68.3546L332.937 34.3543L335.062 43.4339L340.277 45.3657L343.562 52.5135L355.539 57.9227L362.687 65.2637L378.335 69.7069L388.767 83.8093L403.835 86.5139L421.994 94.4344L399.392 68.3546Z" fill="#BBD0D7"/>
<path d="M311.888 44.9186L303.944 50.3206L318.561 67.6385L321.58 84.1621L330.001 93.8538V107.2L341.44 114.508L345.412 124.836L357.805 132.303L355.422 117.05V95.6015L344.3 76.377V69.0685L331.748 60.6478L318.561 43.1709L311.888 44.9186Z" fill="#ADBFC4"/>
<path d="M325.711 82.8911L323.645 69.0685L332.861 79.5546V89.4052L325.711 82.8911Z" fill="#BFD3D9"/>
<path d="M289.618 46.1929L276.777 47.9879L273.463 67.4565L276.777 80.8499L273.463 94.3813L280.505 106.67L288.099 100.319L285.337 89.4106L291.551 72.5653L289.618 46.1929Z" fill="#A0A4BA"/>
<path d="M239.013 73.4383L275.222 48.5396L271.569 66.6935L262.701 73.4383H256.831L252.834 81.4322L237.045 88.7945L239.013 73.4383Z" fill="#898C9F"/>
<path d="M319.305 84.582L316.293 68.3619L313.165 83.4234L313.976 93.0396L319.305 99.8752L320.464 111.809L327.763 117.254L333.092 122.352L344.215 125.596L339.812 115.4L327.763 107.174V94.314L319.305 84.582Z" fill="#BDD3D9"/>
<path d="M293.258 109.67L290.867 98.7998L306.228 99.9878L310.985 108.361V120.731L315.553 129.865L318.978 141.854L328.683 154.414V166.593L277.302 146.231L293.258 109.67Z" fill="#ABC0C6"/>
<path d="M288.228 101.955L281.086 108.042L283.046 116.74L279.3 134.745L290.176 109.503L288.228 101.955Z" fill="#BCBFD1"/>
<path d="M360.502 105.479V96.7038L355.053 87.7851L368.445 92.0855L375.577 100.839L383.682 107.323L387.248 116.238L392.598 121.749L395.677 129.53L405.89 138.284L403.458 146.713L402.161 166.489L393.617 143.955L378.819 124.829L375.577 113.589L360.502 105.479Z" fill="#A6BCC3"/>
<path d="M361.936 66.292L355.658 59.655L355.991 72.3164L368.325 76.1182L376.52 82.1166L387.926 84.3132L377.824 70.597L361.936 66.292Z" fill="#A5C6D0"/>
<path d="M275.364 45.2167L264.089 42.6964V32.3498L279.874 36.8598L287.037 33.9416L301.438 40.3645L300.59 46.6444L290.883 42.6964L275.364 45.2167Z" fill="#B6C9D7"/>
<path d="M453.74 131.364L423.016 96.6117L421.673 106.517L426.206 115.583L423.016 133.883L426.206 154.029L440.141 179.548L442.827 202.548L495.879 194.826L522.573 198.687L494.2 167.964L465.827 150L453.74 131.364Z" fill="#AFC1C6"/>
<path d="M451.779 133.389L424.683 101.988L441.436 127.947L451.779 151.272L462.921 162.004V150.102L451.779 133.389Z" fill="#C7D9DF"/>
<path d="M345.192 126.858L333.469 129.246L332.817 138.038L325.574 147.162L330.345 153.938V167.419L333.469 168.758L365.707 189.165L385.572 192.964L368.204 162.136L363.754 144.66L357.241 133.913L345.192 126.858Z" fill="#ABBDC3"/>
<path d="M598.564 66.9486L559.264 43.2539L528.992 74.048L547.52 83.4429L564.483 77.7016L587.448 80.3112L598.564 66.9486Z" fill="#96ACBC"/>
<path d="M546.998 82.66L529.676 73.2383L495.849 107.452L456.443 131.722L467.664 148.946L495.849 166.43L527.165 200.356L562.917 204.01L571.79 208.446L556.132 178.957L562.917 152.599L557.959 121.283L562.917 102.493L554.827 80.5722L546.998 82.66Z" fill="#9397B0"/>
<path d="M564.588 77.5444L554.667 80.6728L562.975 102.383L557.814 120.77L562.975 152.543L556.04 178.833L571.523 208.349L592.329 219.155L651.038 236.09L627.651 208.349L619.426 168.995L601.523 138.511L600.071 107.221L592.329 93.6732L587.652 80.125L564.588 77.5444Z" fill="#9BAFB6"/>
<path d="M621.32 83.0023L598.408 66.9486L586.771 80.5147L591.988 94.8028L600.05 107.667L600.833 139.935L619.43 168.738L627.594 208.427L650.727 237.003H762.537L748.929 223.395L717.405 205.932L704.251 185.52L676.128 158.078L665.015 139.935L644.15 125.647L638.934 104.101L621.32 83.0023Z" fill="#AABFC5"/>
<path d="M596.416 67.1664L559.603 44.7023L563.602 54.817L569.13 57.5221L572.893 66.3431L580.773 69.4011L581.714 76.5755L586.654 79.0453L596.416 67.1664Z" fill="#BCD3E3"/>
<path d="M659.572 91.5416L598.096 66.7927L621.529 83.1368L638.339 103.928L643.868 125.825L664.438 139.98L676.824 160.108L704.472 185.543L715.973 205.007L748.929 223.586L761.536 235.973L821.697 237.3L770.162 176.696L717.079 154.136L659.572 91.5416Z" fill="#A7C7D0"/>
<path d="M562.308 55.5227L558.897 45.7608L557.368 57.5221L563.955 61.6386V67.9897L569.13 72.9294L571.717 66.9312L567.953 58.463L562.308 55.5227Z" fill="#B4CADA"/>
<path d="M555.722 57.1693L557.603 46.4665L532.081 73.0471L542.314 78.4573L543.49 71.2829L553.722 67.5192L556.31 61.8738L555.722 57.1693Z" fill="#9FB8CA"/>
<path d="M498.987 107.715L529.999 75.3015L525.998 86.5061L523.597 96.7103L512.992 103.313V111.516L498.987 115.518L490.583 124.522L481.179 125.922L474.777 129.924L460.371 131.325L498.987 107.715Z" fill="#A9ADC7"/>
<path d="M474.577 132.125L459.77 133.125L469.575 147.931L496.786 165.138L529.199 199.152L554.81 203.154L534.601 194.551L521.796 181.345L517.994 172.942L509.391 168.54L503.589 158.936L496.786 156.135L491.383 147.931L482.18 143.329L474.577 132.125Z" fill="#8E92AD"/>
<path d="M546.806 84.9054L541.804 81.3039V92.5085L535.402 97.3105L538.603 109.916L533.601 114.718L526.998 130.724L535.402 138.728L539.603 147.931L552.809 143.93L560.612 151.533L556.01 120.32L560.612 102.513L553.809 83.3047L546.806 84.9054Z" fill="#A0A5C5"/>
<path d="M560.221 153.575L552.247 146.087L539.112 150.332L539.825 164.335L534.842 175.985L541.86 179.986L545.72 188.829L555.967 194.795L558.841 187.891L553.597 178.875L560.221 153.575Z" fill="#A7ADD4"/>
<path d="M558.604 102.511L552.531 85.7135L545.25 93.9987L548.262 98.7689L547.258 105.045L553.535 110.569L558.604 102.511Z" fill="#B2B8D9"/>
<path d="M585.154 81.6209L564.853 79.0049L556.093 81.6209L571.665 90.349L576.525 96.2009L578.807 107.607L585.154 114.55L587.336 127.245L598.048 140.04V107.607L590.312 96.2009L585.154 81.6209Z" fill="#B1C7CE"/>
<path d="M559.598 120.959L564.022 104.37L573.975 114.987V130.248L582.601 149.491L585.034 161.877L594.102 171.609L600.959 197.929L594.102 219.826L573.975 209.431L558.05 178.023L564.022 152.145L559.598 120.959Z" fill="#AABFC5"/>
<path d="M572.305 115.263L564.586 106.851L563.134 119.751L567.35 131.911L568.046 142.689L572.305 153.1L570.685 162.021L572.305 167.929L578.879 172.884L583.834 162.021L581.166 149.634L572.305 130.491V115.263Z" fill="#B3CBD1"/>
<path d="M619.5 84.2384L598.614 69.7475L603.926 92.0587L609.238 97.5833L613.063 115.22L626.662 132.644V146.03L635.799 160.479L650.248 168.129L661.722 179.178L665.334 192.777L678.721 208.714L691.258 214.876L704.432 234.85H756.916L747.567 225.925L713.569 205.952L701.882 186.615L674.471 160.479L662.652 140.768L641.362 127.145L635.57 104.713L619.5 84.2384Z" fill="#B7D5DE"/>
<path d="M657.903 93.2551L627.133 80.9473L632.563 88.0062L637.269 94.8841L643.061 99.409L644.69 108.097L652.835 114.251L657.903 124.387L666.409 127.463L675.278 135.427H681.432L715.098 154.432L657.903 93.2551Z" fill="#BFE2EC"/>
<path d="M767.262 178.823L727.165 160.827L736.005 181.665L745.477 187.032L750.212 198.398L767.262 205.66L772.313 212.606H783.679L803.886 220.499L767.262 178.823Z" fill="#C5E4EC"/>
<path d="M667.471 162.8L659.196 142.359L647.435 134.321V144.786L654.058 162.8L671.013 176.047L677.636 190.352L696.975 201.214L691.412 182.67L667.471 162.8Z" fill="#AECED8"/>
<path d="M629.217 207.003L622.615 172.772V162.992L633.862 182.064L639.975 185.976L644.865 200.401L651.222 205.536L655.379 214.827L665.648 221.673L669.56 236.099H652.445L629.217 207.003Z" fill="#9DB4BA"/>
<path d="M657.111 95.5998L649.149 92.5378L651.803 102.744L657.111 104.99L660.173 109.277L670.584 110.502L657.111 95.5998Z" fill="#D5F0F8"/>
<path d="M765.373 180.729L732.386 165.231L738.939 175.529L747.75 179.14L753.673 185.062L762.628 190.696L768.406 197.485L773.606 198.929L792.529 211.352L765.373 180.729Z" fill="#D9F6FD"/>
<path d="M706.797 173.669L679.716 159.513L706.797 185.569L717.671 203.828L748.445 220.651L762.601 234.192L767.115 224.549L748.445 216.343L728.955 198.699L711.311 184.543L706.797 173.669Z" fill="#B1D0D8"/>
<path d="M251.942 123.555L193.092 103.636L161.705 128.384L105.57 144.982L159.592 140.455L193.092 133.212L221.159 136.23L251.942 123.555Z" fill="#41676F"/>
<path d="M243.886 123.234L193.926 106.658V114.025L201.754 116.558L205.438 123.234L215.798 126.227L222.245 133.134L243.886 123.234Z" fill="#55838C"/>
<path d="M192.084 119.631V107.349L161.924 130.141L125.837 140.353L166.885 134.809L178.367 124.25L192.084 119.631Z" fill="#50777F"/>
<path d="M105.11 166.968L108.045 147.152L7.86597 235.222L58.1392 208.801L64.0105 199.627L80.8906 191.187L89.6976 178.344L105.11 166.968Z" fill="#4D666B"/>
<path d="M132.056 177.138L138.028 157.232L127.19 167.185L119.006 175.59L115.025 191.515L123.209 200.584L132.056 213.633L143.115 221.817L135.152 205.228L138.028 191.515L132.056 177.138Z" fill="#45646B"/>
<path d="M128.517 215.845L120.997 203.901L113.256 194.391L99.3211 208.325L87.5985 211.422L78.9725 224.029L67.0287 234.203H149.087L140.24 224.029L128.517 215.845Z" fill="#2F4448"/>
<path d="M196.061 145.849L191.239 135.5L159.248 142.439L161.483 149.378L168.069 154.318L171.245 159.845L179.83 163.021L180.771 167.373L186.417 173.841V181.369L192.533 188.425L197.825 197.011L199.119 179.134L192.533 159.845L196.061 145.849Z" fill="#4F6E75"/>
<path d="M189.811 138.21L181.93 140.231L180.111 145.688L181.93 153.368L191.226 156.601L193.449 145.688L189.811 138.21Z" fill="#5F828A"/>
<path d="M163.943 161.452L156.667 145.688L154.848 155.591L151.615 160.037L150.604 168.727L154.848 178.226V187.118L158.486 197.829V207.934L162.326 214.402L159.497 224.304L163.943 236.43H190.62L182.132 221.879V206.318L176.877 195.808L174.048 184.895L165.358 171.961L163.943 161.452Z" fill="#3A6069"/>
<path d="M496.337 199.148L445.213 206.002L456.637 211.429L470.061 208.858L484.913 214.285L496.337 208.858H518.9L533.18 216.57H546.604L572.309 222.568L579.163 219.712H590.587L560.884 206.002L496.337 199.148Z" fill="#72A4B0"/>
<path d="M330.258 168.589L276.806 147.205L289.039 157.244L298.114 168.589L310.972 171.993L313.997 180.312H330.258L345.385 192.414L364.277 189.877L330.258 168.589Z" fill="#86B8C4"/>
<path d="M249.075 126.539L226.114 137.063V143.441V156.197L234.086 164.808L239.189 174.375L250.988 185.856L254.496 194.466L274.268 190.958L282.56 197.336L292.765 199.569L313.494 205.309L300.419 180.753L266.615 168.954V156.197L249.075 126.539Z" fill="#5C838B"/>
<path d="M248.118 130.047L230.259 138.658L236.319 149.819H242.378L253.54 154.603H262.15L248.118 130.047Z" fill="#6C96A0"/>
<path d="M238.545 236.793L221.59 220.696L219.014 214.901L221.59 207.818L227.814 198.589L243.267 203.525L249.706 201.808L260.223 206.53H272.671L286.407 214.901L295.636 218.12L303.577 223.7L318.172 228.208L327.83 236.793H238.545Z" fill="#668991"/>
<path d="M228.029 200.521L223.092 208.033L228.029 212.325L236.828 216.403L242.194 212.325H252.711L258.935 208.033L249.277 202.667L242.194 205.457L228.029 200.521Z" fill="#739BA4"/>
<path d="M329.443 182.365H314.75L319.05 193.117L329.443 202.614L331.414 208.527L342.524 214.978L350.767 221.966L354.351 227.88L360.981 231.643L365.998 236.66H429.79L411.692 231.643L401.12 223.937L391.623 221.966L388.756 219.278L374.958 212.469L373.704 208.527L362.773 202.614L357.756 197.238L343.42 193.117L329.443 182.365Z" fill="#66909A"/>
<path d="M459.612 231.673L450.403 236.278H590.844L578.641 231.673L561.835 230.522H550.783L535.818 231.673L515.098 228.22L497.6 224.536H491.154L481.945 227.068L470.663 228.22H466.98L459.612 231.673Z" fill="#77A3AD"/>
<path d="M442.291 205.436L398.655 197.795L378.144 192.768L386.791 196.589L394.03 205.436L401.671 209.86L408.91 218.306L418.764 220.92L432.438 226.148L436.258 232.181L449.329 235.6V232.181V226.148L446.916 220.92V214.686L443.698 209.86L442.291 205.436Z" fill="#578C97"/>
<path d="M208.964 138.124L195.677 135.617L200.503 146.595L196.831 160.332L204.201 180.244L202.195 195.286L213.978 187.013L215.483 174.728L212.474 166.204V154.922L208.964 144.643V138.124Z" fill="#547F89"/>
</svg>
