<svg width="823" height="238" viewBox="0 0 823 238" fill="none" xmlns="http://www.w3.org/2000/svg">
<g style="mix-blend-mode:luminosity" opacity="0.9">
<path d="M70.1487 176.355L0.885742 236.803H821.966L770.334 176.355L717.442 153.687L660.773 91.9804L599.066 66.7939L560.027 42.8667L497.06 107.092L456.762 131.02L401.352 66.7939L270.382 0.0495605L211.193 66.7939L124.3 118.426L70.1487 176.355Z" fill="#C4C4C4"/>
<path d="M193.275 132.685L158.365 140.219L140.91 156.939L135.03 177.15L140.91 191.666L138.705 205.446L154.139 236.682H239.21L221.938 219.961L216.978 207.467L200.441 196.075L201.727 178.988L195.296 160.246L198.604 145.731L193.275 132.685Z" fill="#3B5A61"/>
<path d="M221.755 135.809L192.724 132.869L198.42 145.915L195.113 159.879L201.727 178.804L200.257 196.075L216.243 207.1L221.755 219.778L238.842 236.498H366.357L353.312 230.067L328.875 210.958L316.932 204.527L302.6 178.804L269.894 166.126V154.367L251.337 123.498L221.755 135.809Z" fill="#4E727A"/>
<path d="M277.428 145.547L251.337 123.866L269.343 154.918V165.942L302.416 178.62L316.748 205.446L329.609 211.877L351.842 229.7L364.887 236.498H652.623L593.642 219.043L563.142 203.976L496.261 196.994L442.793 203.976L366.909 189.277L331.079 167.412L277.428 145.547Z" fill="#57818A"/>
<path d="M1.86133 237.433L106.734 144.077L158.916 140.219L141.555 156.939L135.595 178.203L141.555 191.613L138.948 205.024L154.323 236.498L1.86133 237.433Z" fill="#344C51"/>
<path d="M263.332 44.4245L242.356 32.0006L270.262 2.03626e-06L332.551 32.0007L326.339 38.2126L312.14 42.0581L302.674 48.8617L292.025 44.4245L275.164 46.4952L263.332 44.4245Z" fill="#93A1AB"/>
<path d="M294.041 72.6398L291.883 43.9907L273.899 46.7433L237.395 72.0926L235.055 89.5444L216.711 112.204L251.1 123.331L276.497 144.688L292.139 109.593L287.567 89.5444L294.041 72.6398Z" fill="#9194A6"/>
<path d="M275.452 80.552L272.24 68.8524L265.244 77.3403L262.491 86.7459L257.215 95.2338V103.951L251.594 114.733L250.906 123.336L276.14 143.982L281.99 116.454L279.581 107.048L272.24 94.0868L275.452 80.552Z" fill="#9499B6"/>
<path d="M335.228 58.9669L319.813 39.6657L312.229 42.0394L302.38 48.8109L291.621 43.9639L293.849 72.3793L287.342 89.4399L291.915 109.579L276.349 144.403L277.932 146.074L333.245 168.313L366.695 189.174L396.908 194.209L401.943 168.313L392.951 145.294L378.205 125.871L374.968 115.081L358.809 106.264V97.1526L348.225 76.9209L347.555 67.542L335.228 58.9669Z" fill="#9CADB2"/>
<path d="M326.376 38.2393L319.635 39.7513L335.002 59.0303L347.437 68.0874L348.051 77.6095L358.668 96.8522V106.142L374.787 115.063L377.911 125.606L392.725 145.149L401.875 168.204L396.711 194.393L442.717 203.904L495.579 196.826L527.65 200.365L496.685 166.745L468.374 148.608L456.651 130.914L401.135 66.3293L332.79 31.6039L326.376 38.2393Z" fill="#A3B6BC"/>
<path d="M200.506 86.3995L124.249 118.673L211.93 66.4069L200.506 86.3995Z" fill="#D1D9DB"/>
<path d="M263.255 43.7665L242.708 31.4802L211.929 66.2721L200.391 86.5596L125.073 118.132L58.5049 186.856L106.181 145.393L162.225 127.895L193.671 103.424L217.255 111.665L235.64 89.3491L237.542 72.3583L275.908 46.3315L263.255 43.7665Z" fill="#85899E"/>
<path d="M307.835 21.0128L271.835 3.71191L276.204 15.7701L286.69 17.8672L293.68 22.5856L307.835 21.0128Z" fill="#AEBECA"/>
<path d="M274.43 15.911L270.55 4.55676L245.829 31.4333L263.363 42.069V31.4333L270.55 27.9839L274.43 15.911Z" fill="#82919B"/>
<path d="M258.753 44.8222L242.81 34.403L213.938 67.2925L203.268 86.8755L228.123 74.8244L232.642 59.635L258.753 44.8222Z" fill="#6D7186"/>
<path d="M177.408 98.55L125.563 119.137L112.884 133.071L137.74 128.05L154.059 115.748L163.348 113.739L177.408 98.55Z" fill="#979CB3"/>
<path d="M311.154 40.1673L302.238 46.9797L304.743 31.9523L319.069 27.3439L329.588 32.5534L325.18 36.9614L311.154 40.1673Z" fill="#BED1DF"/>
<path d="M399.736 68.1358L333.281 34.1354L335.406 43.2151L340.622 45.1469L343.906 52.2947L355.883 57.7038L363.031 65.0448L378.679 69.4881L389.111 83.5905L404.179 86.295L422.339 94.2156L399.736 68.1358Z" fill="#BBD0D7"/>
<path d="M312.233 44.6998L304.289 50.1017L318.906 67.4197L321.924 83.9433L330.345 93.635V106.981L341.785 114.289L345.757 124.617L358.149 132.084L355.766 116.832V95.3827L344.644 76.1581V68.8496L332.093 60.4289L318.906 42.9521L312.233 44.6998Z" fill="#ADBFC4"/>
<path d="M326.055 82.6722L323.99 68.8496L333.205 79.3357V89.1863L326.055 82.6722Z" fill="#BFD3D9"/>
<path d="M289.962 45.9741L277.121 47.769L273.807 67.2377L277.121 80.631L273.807 94.1624L280.849 106.451L288.443 100.1L285.682 89.1917L291.895 72.3465L289.962 45.9741Z" fill="#A0A4BA"/>
<path d="M239.358 73.2194L275.567 48.3207L271.914 66.4746L263.046 73.2194H257.175L253.178 81.2133L237.389 88.5756L239.358 73.2194Z" fill="#898C9F"/>
<path d="M319.65 84.3631L316.637 68.1431L313.509 83.2046L314.32 92.8207L319.65 99.6563L320.808 111.59L328.107 117.035L333.437 122.133L344.559 125.377L340.157 115.181L328.107 106.955V94.0952L319.65 84.3631Z" fill="#BDD3D9"/>
<path d="M293.603 109.451L291.211 98.581L306.572 99.769L311.33 108.142V120.512L315.897 129.646L319.323 141.635L329.028 154.195V166.374L277.647 146.012L293.603 109.451Z" fill="#ABC0C6"/>
<path d="M288.573 101.736L281.431 107.823L283.391 116.521L279.645 134.526L290.521 109.284L288.573 101.736Z" fill="#BCBFD1"/>
<path d="M360.847 105.261V96.4849L355.397 87.5663L368.789 91.8666L375.922 100.62L384.027 107.104L387.593 116.019L392.942 121.531L396.022 129.311L406.234 138.065L403.803 146.494L402.506 166.27L393.962 143.736L379.164 124.61L375.922 113.371L360.847 105.261Z" fill="#A6BCC3"/>
<path d="M362.28 66.0731L356.002 59.4361L356.335 72.0975L368.67 75.8993L376.865 81.8977L388.27 84.0944L378.168 70.3782L362.28 66.0731Z" fill="#A5C6D0"/>
<path d="M275.708 44.9978L264.433 42.4775V32.1309L280.218 36.641L287.381 33.7227L301.783 40.1457L300.934 46.4255L291.228 42.4775L275.708 44.9978Z" fill="#B6C9D7"/>
<path d="M454.084 131.145L423.361 96.3928L422.018 106.298L426.551 115.364L423.361 133.664L426.551 153.81L440.485 179.329L443.171 202.329L496.224 194.607L522.918 198.468L494.545 167.745L466.172 149.781L454.084 131.145Z" fill="#AFC1C6"/>
<path d="M452.123 133.17L425.027 101.769L441.78 127.728L452.123 151.053L463.266 161.785V149.883L452.123 133.17Z" fill="#C7D9DF"/>
<path d="M345.536 126.639L333.813 129.027L333.162 137.819L325.919 146.943L330.689 153.719V167.2L333.813 168.539L366.052 188.946L385.916 192.745L368.549 161.917L364.098 144.441L357.585 133.695L345.536 126.639Z" fill="#ABBDC3"/>
<path d="M598.908 66.7297L559.608 43.0351L529.336 73.8292L547.865 83.224L564.828 77.4827L587.793 80.0924L598.908 66.7297Z" fill="#96ACBC"/>
<path d="M547.343 82.4411L530.021 73.0195L496.193 107.233L456.787 131.503L468.009 148.727L496.193 166.212L527.509 200.137L563.262 203.791L572.135 208.227L556.477 178.738L563.262 152.38L558.303 121.064L563.262 102.275L555.172 80.3534L547.343 82.4411Z" fill="#9397B0"/>
<path d="M564.932 77.3256L555.011 80.4539L563.319 102.164L558.158 120.551L563.319 152.324L556.384 178.614L571.868 208.13L592.674 218.936L651.383 235.871L627.996 208.13L619.77 168.776L601.867 138.292L600.416 107.003L592.674 93.4543L587.996 79.9062L564.932 77.3256Z" fill="#9BAFB6"/>
<path d="M621.664 82.7835L598.752 66.7297L587.116 80.2959L592.332 94.5839L600.395 107.448L601.177 139.716L619.774 168.519L627.939 208.208L651.072 236.784H762.881L749.274 223.176L717.749 205.713L704.595 185.302L676.473 157.86L665.36 139.716L644.495 125.428L639.279 103.882L621.664 82.7835Z" fill="#AABFC5"/>
<path d="M596.76 66.9476L559.947 44.4835L563.946 54.5982L569.474 57.3033L573.238 66.1243L581.118 69.1822L582.059 76.3566L586.998 78.8265L596.76 66.9476Z" fill="#BCD3E3"/>
<path d="M659.916 91.3228L598.441 66.5738L621.873 82.9179L638.683 103.709L644.213 125.606L664.782 139.761L677.169 159.889L704.816 185.325L716.317 204.788L749.273 223.368L761.881 235.754L822.042 237.081L770.507 176.477L717.423 153.917L659.916 91.3228Z" fill="#A7C7D0"/>
<path d="M562.652 55.3039L559.242 45.542L557.713 57.3033L564.299 61.4198V67.7709L569.474 72.7106L572.061 66.7123L568.298 58.2442L562.652 55.3039Z" fill="#B4CADA"/>
<path d="M556.066 56.9505L557.948 46.2477L532.426 72.8282L542.658 78.2384L543.834 71.064L554.067 67.3004L556.654 61.655L556.066 56.9505Z" fill="#9FB8CA"/>
<path d="M499.331 107.496L530.344 75.0826L526.342 86.2872L523.941 96.4914L513.337 103.094V111.297L499.331 115.299L490.928 124.303L481.524 125.703L475.121 129.705L460.715 131.106L499.331 107.496Z" fill="#A9ADC7"/>
<path d="M474.921 131.906L460.115 132.906L469.919 147.713L497.13 164.92L529.544 198.934L555.154 202.935L534.946 194.332L522.141 181.126L518.339 172.723L509.735 168.321L503.933 158.717L497.13 155.916L491.728 147.713L482.524 143.111L474.921 131.906Z" fill="#8E92AD"/>
<path d="M547.151 84.6866L542.149 81.0851V92.2897L535.746 97.0917L538.947 109.697L533.945 114.499L527.343 130.505L535.746 138.509L539.948 147.713L553.153 143.711L560.957 151.314L556.355 120.101L560.957 102.294L554.154 83.0859L547.151 84.6866Z" fill="#A0A5C5"/>
<path d="M560.566 153.356L552.592 145.869L539.457 150.114L540.169 164.116L535.186 175.767L542.205 179.767L546.065 188.61L556.311 194.576L559.186 187.672L553.942 178.656L560.566 153.356Z" fill="#A7ADD4"/>
<path d="M558.948 102.292L552.875 85.4947L545.594 93.7798L548.607 98.55L547.603 104.827L553.879 110.35L558.948 102.292Z" fill="#B2B8D9"/>
<path d="M585.499 81.402L565.197 78.7861L556.438 81.402L572.01 90.1302L576.87 95.982L579.151 107.388L585.499 114.331L587.681 127.027L598.393 139.821V107.388L590.656 95.982L585.499 81.402Z" fill="#B1C7CE"/>
<path d="M559.943 120.74L564.366 104.151L574.319 114.768V130.029L582.945 149.272L585.378 161.658L594.447 171.39L601.303 197.711L594.447 219.608L574.319 209.212L558.394 177.804L564.366 151.926L559.943 120.74Z" fill="#AABFC5"/>
<path d="M572.649 115.044L564.931 106.632L563.479 119.532L567.694 131.692L568.391 142.47L572.649 152.881L571.029 161.802L572.649 167.71L579.224 172.665L584.179 161.802L581.511 149.415L572.649 130.272V115.044Z" fill="#B3CBD1"/>
<path d="M619.845 84.0195L598.958 69.5287L604.27 91.8398L609.582 97.3645L613.407 115.001L627.006 132.425V145.811L636.143 160.261L650.592 167.91L662.067 178.959L665.679 192.559L679.066 208.495L691.602 214.657L704.776 234.631H757.261L747.911 225.706L713.913 205.733L702.227 186.396L674.816 160.261L662.996 140.549L641.706 126.926L635.914 104.494L619.845 84.0195Z" fill="#B7D5DE"/>
<path d="M658.247 93.0363L627.478 80.7285L632.908 87.7874L637.613 94.6653L643.405 99.1902L645.034 107.878L653.179 114.032L658.247 124.168L666.754 127.245L675.623 135.208H681.777L715.442 154.213L658.247 93.0363Z" fill="#BFE2EC"/>
<path d="M767.606 178.604L727.509 160.608L736.349 181.446L745.821 186.813L750.557 198.179L767.606 205.441L772.658 212.387H784.024L804.23 220.28L767.606 178.604Z" fill="#C5E4EC"/>
<path d="M667.815 162.582L659.541 142.14L647.78 134.102V144.567L654.403 162.582L671.358 175.828L677.981 190.133L697.32 200.995L691.757 182.451L667.815 162.582Z" fill="#AECED8"/>
<path d="M629.561 206.784L622.96 172.554V162.773L634.207 181.845L640.32 185.757L645.21 200.182L651.567 205.317L655.723 214.608L665.992 221.454L669.905 235.88H652.789L629.561 206.784Z" fill="#9DB4BA"/>
<path d="M657.455 95.3809L649.494 92.3189L652.148 102.526L657.455 104.771L660.517 109.058L670.928 110.283L657.455 95.3809Z" fill="#D5F0F8"/>
<path d="M765.717 180.51L732.73 165.012L739.284 175.31L748.095 178.921L754.017 184.844L762.973 190.477L768.751 197.266L773.951 198.71L792.874 211.133L765.717 180.51Z" fill="#D9F6FD"/>
<path d="M707.142 173.451L680.061 159.295L707.142 185.35L718.015 203.609L748.79 220.432L762.946 233.973L767.459 224.33L748.79 216.124L729.299 198.48L711.656 184.324L707.142 173.451Z" fill="#B1D0D8"/>
<path d="M252.287 123.336L193.436 103.417L162.049 128.165L105.915 144.764L159.936 140.237L193.436 132.994L221.503 136.011L252.287 123.336Z" fill="#41676F"/>
<path d="M244.231 123.016L194.271 106.439V113.806L202.099 116.339L205.782 123.016L216.143 126.009L222.589 132.916L244.231 123.016Z" fill="#55838C"/>
<path d="M192.429 119.412V107.13L162.269 129.923L126.182 140.134L167.229 134.59L178.712 124.032L192.429 119.412Z" fill="#50777F"/>
<path d="M105.454 166.749L108.39 146.934L8.21045 235.003L58.4837 208.583L64.355 199.409L81.2351 190.969L90.0421 178.125L105.454 166.749Z" fill="#4D666B"/>
<path d="M132.4 176.92L138.372 157.013L127.534 166.967L119.351 175.371L115.369 191.296L123.553 200.365L132.4 213.414L143.459 221.598L135.497 205.01L138.372 191.296L132.4 176.92Z" fill="#45646B"/>
<path d="M128.861 215.626L121.341 203.683L113.6 194.172L99.6656 208.106L87.943 211.203L79.317 223.81L67.3732 233.984H149.431L140.584 223.81L128.861 215.626Z" fill="#2F4448"/>
<path d="M196.406 145.631L191.583 135.281L159.593 142.22L161.827 149.159L168.414 154.099L171.589 159.627L180.175 162.802L181.116 167.154L186.761 173.623V181.15L192.877 188.207L198.17 196.792L199.463 178.915L192.877 159.627L196.406 145.631Z" fill="#4F6E75"/>
<path d="M190.156 137.992L182.274 140.013L180.455 145.469L182.274 153.149L191.571 156.383L193.794 145.469L190.156 137.992Z" fill="#5F828A"/>
<path d="M164.287 161.233L157.012 145.469L155.193 155.372L151.959 159.818L150.949 168.508L155.193 178.007V186.899L158.831 197.611V207.716L162.671 214.183L159.841 224.085L164.287 236.211H190.964L182.476 221.66V206.099L177.222 195.59L174.392 184.676L165.702 171.742L164.287 161.233Z" fill="#3A6069"/>
<path d="M496.681 198.929L445.557 205.784L456.982 211.21L470.405 208.64L485.257 214.066L496.681 208.64H519.244L533.525 216.351H546.948L572.653 222.349L579.508 219.493H590.932L561.229 205.784L496.681 198.929Z" fill="#72A4B0"/>
<path d="M330.603 168.37L277.151 146.986L289.383 157.026L298.459 168.37L311.316 171.774L314.342 180.093H330.603L345.729 192.195L364.622 189.658L330.603 168.37Z" fill="#86B8C4"/>
<path d="M249.419 126.32L226.458 136.844V143.222V155.979L234.431 164.589L239.533 174.156L251.333 185.637L254.841 194.247L274.613 190.739L282.904 197.117L293.109 199.35L313.838 205.09L300.763 180.534L266.959 168.735V155.979L249.419 126.32Z" fill="#5C838B"/>
<path d="M248.463 129.828L230.604 138.439L236.663 149.6H242.722L253.884 154.384H262.494L248.463 129.828Z" fill="#6C96A0"/>
<path d="M238.89 236.574L221.934 220.477L219.359 214.682L221.934 207.599L228.158 198.37L243.612 203.306L250.05 201.589L260.567 206.311H273.016L286.752 214.682L295.981 217.901L303.922 223.482L318.517 227.989L328.175 236.574H238.89Z" fill="#668991"/>
<path d="M228.373 200.302L223.437 207.814L228.373 212.106L237.173 216.184L242.538 212.106H253.055L259.279 207.814L249.621 202.448L242.538 205.238L228.373 200.302Z" fill="#739BA4"/>
<path d="M329.788 182.146H315.094L319.395 192.898L329.788 202.395L331.759 208.308L342.869 214.759L351.112 221.747L354.695 227.661L361.325 231.424L366.343 236.441H430.135L412.037 231.424L401.464 223.719L391.967 221.747L389.1 219.06L375.302 212.25L374.048 208.308L363.117 202.395L358.1 197.019L343.765 192.898L329.788 182.146Z" fill="#66909A"/>
<path d="M459.957 231.454L450.747 236.059H591.188L578.986 231.454L562.179 230.303H551.128L536.163 231.454L515.442 228.001L497.945 224.317H491.498L482.289 226.849L471.008 228.001H467.324L459.957 231.454Z" fill="#77A3AD"/>
<path d="M442.635 205.218L398.999 197.576L378.488 192.549L387.135 196.37L394.374 205.218L402.016 209.642L409.255 218.087L419.108 220.701L432.782 225.93L436.603 231.962L449.673 235.381V231.962V225.93L447.26 220.701V214.468L444.043 209.642L442.635 205.218Z" fill="#578C97"/>
<path d="M209.309 137.906L196.021 135.398L200.848 146.376L197.175 160.113L204.545 180.025L202.54 195.067L214.323 186.794L215.827 174.509L212.819 165.985V154.703L209.309 144.424V137.906Z" fill="#547F89"/>
</g>
</svg>
