<svg width="106" height="68" viewBox="0 0 106 68" fill="none" xmlns="http://www.w3.org/2000/svg">
<path fill-rule="evenodd" clip-rule="evenodd" d="M91.7829 26.7335C92.6937 24.5224 93.1942 22.1118 93.1942 19.5886C93.1942 8.87778 84.1743 0.194946 73.0476 0.194946C63.1235 0.194946 54.8754 7.10239 53.2084 16.1953C50.7494 14.6957 47.7268 13.8118 44.4592 13.8118C43.4725 13.8118 42.5082 13.8924 41.5749 14.0462C38.9691 6.03596 30.8602 0.194952 21.2604 0.194952C9.5561 0.194952 0.0678711 8.87779 0.0678711 19.5886C0.0678711 26.4475 3.95879 32.4748 9.83095 35.9229C9.11519 37.3669 8.72654 38.9167 8.72654 40.5296C8.72654 48.3349 17.8277 54.6623 29.0545 54.6623C38.0529 54.6623 45.6857 50.5975 48.3613 44.965C51.3285 47.3652 55.7278 48.8854 60.6381 48.8854C66.2877 48.8854 71.261 46.8729 74.1546 43.8231C77.4016 45.9191 82.0847 47.2349 87.2913 47.2349C97.0947 47.2349 105.042 42.5702 105.042 36.816C105.042 31.9726 99.4115 27.9011 91.7829 26.7335Z" fill="#E8F2F6"/>
<path fill-rule="evenodd" clip-rule="evenodd" d="M39.5509 21.6213C39.6265 21.0506 39.6653 20.4706 39.6653 19.8831C39.6653 11.218 31.2218 4.19348 20.8062 4.19348C10.3906 4.19348 1.94702 11.218 1.94702 19.8831C1.94702 26.7639 7.27119 32.6102 14.6792 34.7262C14.0079 36.0724 13.6384 37.5433 13.6384 39.084C13.6384 45.5211 20.0887 50.7394 28.0457 50.7394C36.0026 50.7394 42.453 45.5211 42.453 39.084C42.453 38.806 42.4409 38.5302 42.4173 38.257C44.5453 38.7886 46.9023 39.084 49.3825 39.084C58.842 39.084 66.5104 34.7858 66.5104 29.4836C66.5104 24.1814 58.842 19.8831 49.3825 19.8831C45.7241 19.8831 42.3336 20.526 39.5509 21.6213Z" fill="#DEF0F8"/>
<path fill-rule="evenodd" clip-rule="evenodd" d="M70.8263 30.7778C77.7731 30.7778 83.4046 26.1544 83.4046 20.4511C83.4046 14.7477 77.7731 10.1243 70.8263 10.1243C64.2138 10.1243 58.7931 14.3134 58.2866 19.6354C57.8636 19.5951 57.4344 19.5744 57 19.5744C54.5355 19.5744 52.237 20.239 50.2984 21.3868C48.1565 18.8124 44.6894 17.1397 40.7768 17.1397C34.2719 17.1397 28.9987 21.7631 28.9987 27.4664C28.9987 33.1698 34.2719 37.7932 40.7768 37.7932C42.6149 37.7932 44.3546 37.424 45.9049 36.7656C48.0072 40.4846 52.187 43.019 57 43.019C63.9261 43.019 69.5408 37.7707 69.5408 31.2967C69.5408 31.1045 69.5359 30.9133 69.5261 30.7233C69.9535 30.7593 70.3873 30.7778 70.8263 30.7778Z" fill="#EDF9FF"/>
<path d="M24.9723 54.6622L24.6288 64.8361" stroke="#71B7F7" stroke-opacity="0.38"/>
<path d="M71.9416 47.9347L71.5981 58.1085" stroke="#71B7F7" stroke-opacity="0.38"/>
<path d="M56.5451 51.877L56.2017 62.0508" stroke="#71B7F7" stroke-opacity="0.38"/>
<path d="M39.1887 55.3972L38.8452 65.5711" stroke="#71B7F7" stroke-opacity="0.38"/>
<path d="M63.8842 56.9639L63.5407 67.1377" stroke="#71B7F7" stroke-opacity="0.38"/>
<path d="M81.2406 46.79L80.8971 56.9639" stroke="#71B7F7" stroke-opacity="0.38"/>
<path d="M48.4874 45.2234L48.1439 55.3972" stroke="#71B7F7" stroke-opacity="0.38"/>
</svg>
