<svg width="52" height="53" viewBox="0 0 52 53" fill="none" xmlns="http://www.w3.org/2000/svg">
<path d="M25.9497 52.2574L25.817 26.4026" stroke="#619AA1" stroke-width="0.5"/>
<path d="M27.7275 51.4007L26.0032 49.5349L23.8957 51.4008" stroke="#619AA1" stroke-width="0.5"/>
<path d="M29.6603 44.9775L26.1373 41.2244L22.383 44.7244" stroke="#619AA1" stroke-width="0.5"/>
<path d="M31.3388 37.0365L26.2389 32.1044L20.9275 37.0365" stroke="#619AA1" stroke-width="0.5"/>
<path d="M32.4967 35.0212L26.0838 29.1876L19.3974 35.0212" stroke="#619AA1" stroke-width="0.5"/>
<path d="M30.3499 39.8103L26.0004 35.2243L21.2811 39.8103" stroke="#619AA1" stroke-width="0.5"/>
<path d="M29.9037 42.375L25.9631 38.2198L21.7273 41.9729" stroke="#619AA1" stroke-width="0.5"/>
<path d="M28.4278 49.2417L25.9993 47.0954L23.3721 49.5349" stroke="#619AA1" stroke-width="0.5"/>
<path d="M28.7732 46.9272L26.1103 44.2806L23.0187 46.9272" stroke="#619AA1" stroke-width="0.5"/>
<path d="M45.4324 9.56607L25.7118 26.2869" stroke="#619AA1" stroke-width="0.5"/>
<path d="M43.6334 8.7548L43.3124 11.2751L46.0964 11.6901" stroke="#619AA1" stroke-width="0.5"/>
<path d="M37.4705 11.403L36.86 16.5142L41.9544 17.1405" stroke="#619AA1" stroke-width="0.5"/>
<path d="M30.3084 15.2216L29.8083 22.2986L37.0006 23.1972" stroke="#619AA1" stroke-width="0.5"/>
<path d="M28.0203 15.63L27.6737 24.2924L36.4404 25.6647" stroke="#619AA1" stroke-width="0.5"/>
<path d="M33.0689 14.1962L32.3516 20.4759L38.8982 21.1433" stroke="#619AA1" stroke-width="0.5"/>
<path d="M35.3205 12.8894L34.6703 18.579L40.2681 19.4114" stroke="#619AA1" stroke-width="0.5"/>
<path d="M41.5293 9.60621L41.4461 12.8462L45.0036 13.2906" stroke="#619AA1" stroke-width="0.5"/>
<path d="M39.5343 10.8293L39.2185 14.5705L43.2332 15.2375" stroke="#619AA1" stroke-width="0.5"/>
<path d="M51.4337 26.2488L25.5789 26.3815" stroke="#619AA1" stroke-width="0.5"/>
<path d="M50.5771 24.4709L48.7112 26.1953L50.5771 28.3027" stroke="#619AA1" stroke-width="0.5"/>
<path d="M44.1538 22.5381L40.4007 26.0611L43.9007 29.8155" stroke="#619AA1" stroke-width="0.5"/>
<path d="M36.2128 20.8596L31.2807 25.9595L36.2128 31.271" stroke="#619AA1" stroke-width="0.5"/>
<path d="M34.1975 19.7018L28.3639 26.1147L34.1975 32.8011" stroke="#619AA1" stroke-width="0.5"/>
<path d="M38.9866 21.8486L34.4006 26.1981L38.9866 30.9173" stroke="#619AA1" stroke-width="0.5"/>
<path d="M41.5513 22.2948L37.3961 26.2354L41.1492 30.4712" stroke="#619AA1" stroke-width="0.5"/>
<path d="M48.418 23.7707L46.2717 26.1991L48.7112 28.8263" stroke="#619AA1" stroke-width="0.5"/>
<path d="M46.1035 23.4253L43.4569 26.0882L46.1035 29.1797" stroke="#619AA1" stroke-width="0.5"/>
<path d="M44.1964 44.4398L25.8205 26.2515" stroke="#619AA1" stroke-width="0.5"/>
<path d="M44.8478 42.5768L42.3091 42.4768L42.1383 45.2863" stroke="#619AA1" stroke-width="0.5"/>
<path d="M41.6726 36.6682L36.5276 36.5055L36.3477 41.6351" stroke="#619AA1" stroke-width="0.5"/>
<path d="M37.2442 29.8662L30.1506 29.9849L29.8823 37.2281" stroke="#619AA1" stroke-width="0.5"/>
<path d="M36.638 27.6224L27.9784 28.0321L27.3754 36.885" stroke="#619AA1" stroke-width="0.5"/>
<path d="M38.5063 32.5269L32.188 32.3596L32.0938 38.9394" stroke="#619AA1" stroke-width="0.5"/>
<path d="M40.0044 34.6559L34.2798 34.5041L33.9385 40.1532" stroke="#619AA1" stroke-width="0.5"/>
<path d="M43.8162 40.555L40.5814 40.7545L40.4487 44.3372" stroke="#619AA1" stroke-width="0.5"/>
<path d="M42.4239 38.6742L38.6695 38.6857L38.3549 42.7432" stroke="#619AA1" stroke-width="0.5"/>
<path d="M25.585 0.575409L25.7177 26.4302" stroke="#619AA1" stroke-width="0.5"/>
<path d="M23.8072 1.43208L25.5315 3.29796L27.639 1.43207" stroke="#619AA1" stroke-width="0.5"/>
<path d="M21.8744 7.85532L25.3974 11.6085L29.1517 8.10848" stroke="#619AA1" stroke-width="0.5"/>
<path d="M20.1959 15.7964L25.2957 20.7285L30.6072 15.7964" stroke="#619AA1" stroke-width="0.5"/>
<path d="M19.038 17.8117L25.4509 23.6453L32.1373 17.8117" stroke="#619AA1" stroke-width="0.5"/>
<path d="M21.1848 13.0226L25.5343 17.6086L30.2536 13.0226" stroke="#619AA1" stroke-width="0.5"/>
<path d="M21.631 10.4578L25.5716 14.6131L29.8074 10.8599" stroke="#619AA1" stroke-width="0.5"/>
<path d="M23.1069 3.59114L25.5354 5.73749L28.1626 3.29797" stroke="#619AA1" stroke-width="0.5"/>
<path d="M22.7615 5.90564L25.4244 8.55225L28.516 5.90561" stroke="#619AA1" stroke-width="0.5"/>
<path d="M6.10229 43.2668L25.8229 26.546" stroke="#619AA1" stroke-width="0.5"/>
<path d="M7.90135 44.0781L8.22228 41.5577L5.43831 41.1427" stroke="#619AA1" stroke-width="0.5"/>
<path d="M14.0642 41.4299L14.6747 36.3187L9.58034 35.6924" stroke="#619AA1" stroke-width="0.5"/>
<path d="M21.2263 37.6113L21.7264 30.5343L14.5341 29.6357" stroke="#619AA1" stroke-width="0.5"/>
<path d="M23.5144 37.2028L23.861 28.5405L15.0943 27.1682" stroke="#619AA1" stroke-width="0.5"/>
<path d="M18.4658 38.6367L19.1831 32.3569L12.6365 31.6896" stroke="#619AA1" stroke-width="0.5"/>
<path d="M16.2142 39.9435L16.8644 34.2539L11.2666 33.4215" stroke="#619AA1" stroke-width="0.5"/>
<path d="M10.0054 43.2267L10.0886 39.9867L6.53111 39.5423" stroke="#619AA1" stroke-width="0.5"/>
<path d="M12.0004 42.0035L12.3162 38.2624L8.30149 37.5954" stroke="#619AA1" stroke-width="0.5"/>
<path d="M0.100952 26.5841L25.9558 26.4514" stroke="#619AA1" stroke-width="0.5"/>
<path d="M0.957626 28.3619L2.8235 26.6376L0.957611 24.5301" stroke="#619AA1" stroke-width="0.5"/>
<path d="M7.38086 30.2948L11.134 26.7718L7.63403 23.0174" stroke="#619AA1" stroke-width="0.5"/>
<path d="M15.3219 31.9733L20.254 26.8734L15.3219 21.5619" stroke="#619AA1" stroke-width="0.5"/>
<path d="M17.3372 33.1311L23.1708 26.7182L17.3372 20.0318" stroke="#619AA1" stroke-width="0.5"/>
<path d="M12.5481 30.9843L17.1341 26.6348L12.5481 21.9155" stroke="#619AA1" stroke-width="0.5"/>
<path d="M9.98335 30.5381L14.1386 26.5975L10.3855 22.3617" stroke="#619AA1" stroke-width="0.5"/>
<path d="M3.11668 29.0622L5.26303 26.6338L2.82352 24.0066" stroke="#619AA1" stroke-width="0.5"/>
<path d="M5.43118 29.4076L8.07779 26.7447L5.43115 23.6531" stroke="#619AA1" stroke-width="0.5"/>
<path d="M7.33829 8.39313L25.7142 26.5814" stroke="#619AA1" stroke-width="0.5"/>
<path d="M6.6869 10.256L9.2256 10.3561L9.39638 7.54652" stroke="#619AA1" stroke-width="0.5"/>
<path d="M9.86212 16.1646L15.0071 16.3274L15.187 11.1978" stroke="#619AA1" stroke-width="0.5"/>
<path d="M14.2905 22.9667L21.3841 22.848L21.6524 15.6048" stroke="#619AA1" stroke-width="0.5"/>
<path d="M14.8967 25.2104L23.5563 24.8008L24.1593 15.9478" stroke="#619AA1" stroke-width="0.5"/>
<path d="M13.0284 20.306L19.3467 20.4732L19.4409 13.8934" stroke="#619AA1" stroke-width="0.5"/>
<path d="M11.5303 18.1769L17.2549 18.3288L17.5962 12.6797" stroke="#619AA1" stroke-width="0.5"/>
<path d="M7.71845 12.2778L10.9533 12.0784L11.086 8.49567" stroke="#619AA1" stroke-width="0.5"/>
<path d="M9.11079 14.1587L12.8652 14.1472L13.1798 10.0896" stroke="#619AA1" stroke-width="0.5"/>
</svg>
