<svg width="106" height="71" viewBox="0 0 106 71" fill="none" xmlns="http://www.w3.org/2000/svg">
<path fill-rule="evenodd" clip-rule="evenodd" d="M92.6919 26.7635C93.6026 24.5524 94.1031 22.1418 94.1031 19.6186C94.1031 8.90781 85.0832 0.224976 73.9566 0.224976C64.0325 0.224976 55.7843 7.13241 54.1173 16.2253C51.6583 14.7258 48.6358 13.8418 45.3681 13.8418C44.3815 13.8418 43.4171 13.9224 42.4839 14.0762C39.8781 6.06599 31.7691 0.224982 22.1694 0.224982C10.465 0.224982 0.976807 8.90782 0.976807 19.6186C0.976807 26.4776 4.86773 32.5049 10.7399 35.9529C10.0241 37.3969 9.63547 38.9467 9.63547 40.5597C9.63547 48.3649 18.7366 54.6923 29.9635 54.6923C38.9618 54.6923 46.5946 50.6275 49.2703 44.995C52.2374 47.3952 56.6368 48.9154 61.547 48.9154C67.1967 48.9154 72.1699 46.9029 75.0636 43.8531C78.3105 45.9491 82.9936 47.2649 88.2003 47.2649C98.0036 47.2649 105.951 42.6002 105.951 36.846C105.951 32.0026 100.32 27.9311 92.6919 26.7635Z" fill="#E8F2F6"/>
<path fill-rule="evenodd" clip-rule="evenodd" d="M40.4599 21.6513C40.5355 21.0806 40.5743 20.5006 40.5743 19.9132C40.5743 11.248 32.1307 4.22351 21.7151 4.22351C11.2995 4.22351 2.85596 11.248 2.85596 19.9132C2.85596 26.794 8.18012 32.6403 15.5881 34.7562C14.9168 36.1025 14.5473 37.5733 14.5473 39.1141C14.5473 45.5512 20.9977 50.7695 28.9546 50.7695C36.9115 50.7695 43.3619 45.5512 43.3619 39.1141C43.3619 38.836 43.3499 38.5602 43.3262 38.287C45.4542 38.8186 47.8113 39.1141 50.2915 39.1141C59.7509 39.1141 67.4194 34.8158 67.4194 29.5136C67.4194 24.2114 59.7509 19.9132 50.2915 19.9132C46.633 19.9132 43.2425 20.5561 40.4599 21.6513Z" fill="#DEF0F8"/>
<path fill-rule="evenodd" clip-rule="evenodd" d="M71.7352 30.8078C78.682 30.8078 84.3136 26.1844 84.3136 20.4811C84.3136 14.7778 78.682 10.1543 71.7352 10.1543C65.1228 10.1543 59.7021 14.3434 59.1955 19.6654C58.7725 19.6251 58.3433 19.6045 57.9089 19.6045C55.4444 19.6045 53.1459 20.269 51.2073 21.4168C49.0654 18.8425 45.5984 17.1697 41.6857 17.1697C35.1809 17.1697 29.9077 21.7932 29.9077 27.4965C29.9077 33.1998 35.1809 37.8232 41.6857 37.8232C43.5238 37.8232 45.2636 37.4541 46.8138 36.7957C48.9162 40.5146 53.0959 43.049 57.9089 43.049C64.835 43.049 70.4497 37.8008 70.4497 31.3267C70.4497 31.1345 70.4448 30.9433 70.435 30.7533C70.8624 30.7894 71.2962 30.8078 71.7352 30.8078Z" fill="#EDF9FF"/>
<ellipse cx="75.297" cy="48.9883" rx="1.54814" ry="1.78113" fill="#E8F2F6"/>
<ellipse cx="55.5625" cy="52.9112" rx="1.54814" ry="1.78113" fill="#E8F2F6"/>
<ellipse cx="80.776" cy="51.8214" rx="1.54814" ry="1.78113" transform="rotate(-103.496 80.776 51.8214)" fill="#E8F2F6"/>
<ellipse cx="39.1639" cy="56.9901" rx="1.54814" ry="1.78113" fill="#E8F2F6"/>
<ellipse cx="82.3397" cy="60.5524" rx="1.54814" ry="1.78113" fill="#E8F2F6"/>
<ellipse cx="53.9974" cy="67.2317" rx="1.54814" ry="1.78113" fill="#E8F2F6"/>
<ellipse cx="26.0058" cy="65.4506" rx="1.54814" ry="1.78113" fill="#E8F2F6"/>
<ellipse cx="34.1333" cy="69.0128" rx="1.54814" ry="1.78113" fill="#E8F2F6"/>
<ellipse cx="42.2601" cy="65.4506" rx="1.54814" ry="1.78113" fill="#E8F2F6"/>
<ellipse cx="65.7343" cy="65.4506" rx="1.54814" ry="1.78113" fill="#E8F2F6"/>
<ellipse cx="34.1333" cy="60.5524" rx="1.54814" ry="1.78113" fill="#E8F2F6"/>
<ellipse cx="57.3185" cy="60.5524" rx="1.54814" ry="1.78113" fill="#E8F2F6"/>
<ellipse cx="76.4317" cy="58.2545" rx="1.54814" ry="1.78113" fill="#E8F2F6"/>
<ellipse cx="87.6597" cy="56.4734" rx="1.54814" ry="1.78113" fill="#E8F2F6"/>
<ellipse cx="67.2825" cy="55.209" rx="1.54814" ry="1.78113" fill="#E8F2F6"/>
<ellipse cx="48.9664" cy="58.2545" rx="1.54814" ry="1.78113" fill="#E8F2F6"/>
<ellipse cx="23.9447" cy="58.7713" rx="1.54814" ry="1.78113" fill="#E8F2F6"/>
</svg>
